<?xml version="1.0" standalone="no"?>
<!DOCTYPE svg PUBLIC "-//W3C//DTD SVG 20010904//EN"
 "http://www.w3.org/TR/2001/REC-SVG-20010904/DTD/svg10.dtd">
<svg version="1.0" xmlns="http://www.w3.org/2000/svg"
 width="101.000000pt" height="101.000000pt" viewBox="0 0 101.000000 101.000000"
 preserveAspectRatio="xMidYMid meet">
<metadata>
Created by potrace 1.14, written by Peter Selinger 2001-2017
</metadata>
<g transform="translate(0.000000,101.000000) scale(0.100000,-0.100000)"
fill="#000000" stroke="none">
<path d="M530 850 c0 -5 -7 -7 -15 -4 -8 4 -15 2 -15 -4 0 -7 -10 -6 -30 1
-23 9 -35 9 -50 -1 -11 -6 -26 -12 -34 -12 -7 0 -16 -9 -19 -21 -3 -12 -10
-18 -16 -14 -10 5 -15 -7 -12 -27 1 -7 -14 -12 -31 -9 -10 1 -22 -40 -20 -71
l2 -27 -24 24 c-37 37 -72 33 -86 -9 -6 -18 -10 -38 -9 -42 5 -32 -3 -54 -20
-54 -10 0 -24 -7 -31 -15 -15 -19 -16 -73 -1 -88 14 -14 14 -60 0 -74 -13 -13
21 -77 47 -87 8 -3 13 -10 10 -15 -3 -5 3 -20 14 -32 11 -13 19 -19 20 -13 0
5 -5 15 -12 22 -7 7 -9 12 -5 12 5 0 19 -12 33 -27 14 -16 22 -22 18 -14 -4 9
-2 12 6 9 6 -2 28 -28 48 -58 21 -29 49 -62 63 -73 38 -28 99 -32 161 -12 58
19 56 18 113 30 47 9 86 28 104 49 7 8 25 18 41 21 54 12 109 105 62 105 -15
0 -18 6 -14 30 2 16 8 27 13 24 5 -3 9 -1 9 5 0 5 -5 11 -11 13 -6 2 -1 14 10
28 69 82 81 99 81 109 0 16 -11 13 -40 -9 -27 -21 -46 -25 -55 -11 -3 5 19 27
49 48 51 35 99 93 78 93 -10 0 -115 -80 -120 -92 -6 -14 -22 -8 -22 7 0 9 23
37 50 64 49 48 64 81 36 81 -8 0 -18 -5 -21 -11 -4 -5 -12 -8 -18 -6 -7 3 -22
-5 -35 -17 l-24 -21 7 28 c9 33 0 35 -26 5 -19 -22 -19 -21 1 17 38 75 14 107
-38 49 -47 -53 -76 -40 -67 28 4 32 -12 48 -57 55 -18 3 -41 9 -50 14 -22 12
-48 11 -48 -1z"/>
<path d="M245 821 c-8 -14 24 -83 36 -75 5 3 9 15 8 27 0 21 -1 21 -9 2 -6
-14 -9 -15 -10 -5 -5 50 -14 68 -25 51z"/>
<path d="M722 800 c-15 -25 -16 -53 0 -48 15 5 28 42 19 56 -4 7 -11 5 -19 -8z"/>
<path d="M230 740 c6 -11 16 -20 22 -20 6 0 3 9 -7 20 -10 11 -20 20 -22 20
-2 0 1 -9 7 -20z"/>
<path d="M130 668 c0 -9 5 -20 11 -23 17 -11 18 -2 3 19 -12 17 -14 17 -14 4z"/>
<path d="M128 593 c7 -3 16 -2 19 1 4 3 -2 6 -13 5 -11 0 -14 -3 -6 -6z"/>
<path d="M910 400 c-9 -6 -10 -10 -3 -10 6 0 15 5 18 10 8 12 4 12 -15 0z"/>
<path d="M868 353 c7 -3 16 -2 19 1 4 3 -2 6 -13 5 -11 0 -14 -3 -6 -6z"/>
<path d="M155 270 c20 -22 14 -26 -16 -10 -11 6 -24 8 -30 5 -14 -10 9 -35 27
-29 8 2 21 6 29 9 13 4 14 9 5 25 -6 11 -16 20 -22 20 -6 0 -3 -9 7 -20z"/>
<path d="M178 219 c-10 -5 -18 -14 -18 -19 0 -14 28 -1 34 16 6 16 6 16 -16 3z"/>
<path d="M210 200 c-6 -12 -9 -24 -7 -27 3 -2 11 5 17 17 6 12 9 24 7 27 -3 2
-11 -5 -17 -17z"/>
<path d="M251 199 c-7 -12 -10 -23 -8 -26 3 -3 11 5 17 17 15 28 8 35 -9 9z"/>
<path d="M805 206 l-30 -13 27 -8 c37 -10 62 -3 66 18 4 21 -20 22 -63 3z"/>
<path d="M275 190 c-3 -5 -1 -10 4 -10 6 0 11 5 11 10 0 6 -2 10 -4 10 -3 0
-8 -4 -11 -10z"/>
</g>
</svg>
